<svg width="191" height="119" viewBox="0 0 191 119" fill="none" xmlns="http://www.w3.org/2000/svg">
<path fill-rule="evenodd" clip-rule="evenodd" d="M61.0106 0.000419933C61.1477 -0.0191234 61.4415 0.645351 61.7353 1.60298C62.0095 2.48243 62.4012 4.00681 62.597 4.96444C62.8125 5.92206 63.0867 7.68096 63.2238 8.87311C63.3609 10.1434 63.4001 12.0978 63.3413 13.6612C63.263 15.1074 63.0671 17.14 62.8908 18.1562C62.7146 19.1725 62.362 20.7555 62.0878 21.674C61.8332 22.5926 61.2065 24.3515 60.7168 25.5827C60.2076 26.8139 59.5025 28.3578 59.1304 29.0028C58.7583 29.6477 58.1903 30.6249 57.8573 31.1525C57.5244 31.6998 56.8193 32.6965 56.2709 33.4C55.7421 34.1036 54.6061 35.4325 52.2363 38.0904L53.999 40.1034C54.9783 41.1978 56.2513 42.8004 56.8193 43.6603C57.3873 44.5202 58.3078 46.1032 58.8366 47.1781C59.385 48.253 60.1293 50.0901 60.521 51.2822C60.8931 52.4744 61.3827 54.2333 61.559 55.1909C61.8332 56.5198 61.9115 57.8683 61.9115 60.7608C61.9115 64.2395 61.8528 64.7867 61.3632 66.9169C61.0498 68.2068 60.5406 69.9657 60.2272 70.8256C59.9138 71.6855 59.3458 73.0535 58.9541 73.8548C58.5624 74.6561 57.8965 75.8873 57.446 76.5909C57.0152 77.2945 56.0946 78.5648 55.3896 79.4247C54.7041 80.2846 53.5289 81.5744 52.7847 82.3171C52.06 83.0402 50.7282 84.1542 49.8273 84.8186C48.9459 85.4831 47.7316 86.3039 47.144 86.6362C46.5565 86.988 45.2638 87.6329 44.3041 88.0628C43.3248 88.4928 41.993 89.04 41.3075 89.2745C40.6416 89.4895 39.4077 89.8608 38.5656 90.0758C37.743 90.2908 36.3916 90.5253 34.1196 90.7598L34.1784 92.1279C34.2176 92.8901 34.4134 94.1995 34.6289 95.0594C34.8443 95.9193 35.3535 97.2287 35.7452 97.9909C36.1369 98.7335 36.7245 99.7107 37.0575 100.16C37.3708 100.61 38.1347 101.489 38.7222 102.134C39.3098 102.779 40.0736 103.834 40.4262 104.46C40.7591 105.085 41.19 106.18 41.3467 106.883C41.523 107.587 41.6601 108.603 41.6601 109.131C41.6601 109.678 41.523 110.675 41.3467 111.378C41.1704 112.082 40.7591 113.176 40.4066 113.801C40.0736 114.446 39.349 115.424 38.8202 115.99C38.2522 116.577 37.2337 117.339 36.372 117.788C35.569 118.199 34.433 118.648 33.865 118.785C33.3166 118.902 32.2982 119 31.6127 119C30.9468 119 29.9087 118.863 29.3212 118.707C28.7336 118.551 27.7152 118.16 27.0688 117.847C26.4225 117.534 25.4432 116.831 24.9144 116.323C24.366 115.795 23.7197 115.013 23.4259 114.603C23.1517 114.173 22.7404 113.352 22.5054 112.805C22.2704 112.238 21.9962 111.183 21.8787 110.46C21.7611 109.6 21.7611 108.642 21.8982 107.763C21.9962 106.961 22.3487 105.828 22.7208 105.026C23.093 104.264 23.9351 103.014 24.6402 102.193C25.3453 101.391 26.3442 100.121 26.8534 99.3589C27.3626 98.5967 27.9502 97.5023 28.1656 96.916C28.4007 96.3297 28.6944 95.3525 28.8511 94.7662C29.0078 94.1799 29.1449 93.0269 29.2232 90.7598L27.7543 90.623C26.9513 90.5253 25.5803 90.2908 24.7186 90.0563C23.8568 89.8413 22.525 89.4309 21.7807 89.1768C21.0169 88.9032 19.783 88.4146 19.0388 88.0824C18.2749 87.7306 17.0019 87.0661 16.1988 86.5971C15.3958 86.128 13.9857 85.1509 13.0652 84.4473C12.1446 83.7242 10.7149 82.4344 9.87271 81.5744C9.03053 80.7145 7.75747 79.1706 7.0328 78.1544C6.30814 77.1381 5.34845 75.5942 4.89798 74.7343C4.44751 73.8744 3.7816 72.3891 3.38989 71.4119C3.01776 70.4347 2.54771 68.9885 2.33227 68.1872C2.11683 67.386 1.82304 66.0179 1.68595 65.158C1.54885 64.2981 1.43133 62.1874 1.43133 60.4676C1.43133 58.4156 1.54885 56.7348 1.76429 55.5818C1.94056 54.6241 2.33227 52.9825 2.64564 51.9662C2.95901 50.95 3.42906 49.5819 4.11456 47.7644L3.38989 46.2987C2.97859 45.4974 2.31268 43.8167 1.90139 42.5854C1.49009 41.3542 0.96128 39.4585 0.745838 38.3836C0.530397 37.3087 0.256199 35.3348 0.119101 33.9863C0.00158715 32.6378 -0.037584 30.7031 0.0407583 29.6868C0.099515 28.6705 0.256199 27.1657 0.354127 26.3644C0.471641 25.5631 0.824181 23.8824 1.13755 22.6512C1.45092 21.42 1.82304 20.1105 1.96014 19.7588C2.09724 19.3679 2.33227 19.1334 2.52812 19.1334C2.72398 19.1334 3.9187 19.3679 5.17218 19.6415C6.44524 19.9347 8.40379 20.521 9.53976 20.9509C10.6757 21.3809 12.3405 22.1235 13.261 22.6121C14.1815 23.0811 15.6505 23.941 16.5318 24.5273C17.4327 25.1137 18.8429 26.169 19.6655 26.8726C20.5077 27.5761 21.7024 28.7096 22.3291 29.3741C22.9559 30.019 24.0331 31.2698 24.699 32.1297C25.3845 32.9896 26.4813 34.5336 27.108 35.5498C27.7543 36.5661 28.6357 38.11 29.0666 38.9699C29.517 39.8298 30.3005 41.7255 30.8488 43.1717C31.3972 44.6179 32.0632 46.6504 32.3374 47.6667C32.6115 48.683 33.0033 50.5396 33.2383 51.7708C33.4537 53.002 33.7083 55.0345 33.8259 56.2658C33.9238 57.497 34.0217 64.689 34.0217 72.2523C34.0217 83.0402 34.0805 85.9912 34.2567 86.089C34.3938 86.1476 35.471 86.0108 36.6658 85.7763C37.8409 85.5417 39.6623 85.0532 40.6808 84.6623C41.6992 84.291 42.9331 83.7633 43.4228 83.5288C43.9124 83.2747 45.0875 82.5516 46.0668 81.9067C47.0265 81.2813 48.5934 80.011 49.5139 79.112C50.4344 78.213 51.7466 76.7277 52.4125 75.8092C53.0785 74.8906 54.0577 73.3076 54.567 72.2913C55.0958 71.2751 55.7813 69.653 56.1142 68.6758C56.4276 67.6987 56.8389 66.0766 57.0347 65.0603C57.2894 63.6141 57.3481 62.4806 57.2698 59.979C57.211 57.6143 57.0739 56.2658 56.7605 54.8977C56.5255 53.8815 56.0359 52.2985 55.6638 51.3799C55.2916 50.4614 54.7041 49.1715 54.3515 48.5071C53.999 47.8426 53.1568 46.5136 52.4909 45.5756C51.825 44.6375 50.6303 43.2108 48.4171 41.0219L47.144 41.8428C46.439 42.2923 44.7154 43.2108 43.3248 43.8753C41.9343 44.5398 40.2695 45.2433 39.6624 45.4583C39.0356 45.6537 38.4676 45.7319 38.3893 45.6537C38.3109 45.556 38.2326 43.6603 38.2522 41.4519C38.2522 38.1491 38.3501 36.9374 38.7027 34.8658C38.9573 33.4782 39.3686 31.5825 39.6428 30.664C39.8974 29.7454 40.4262 28.1624 40.8179 27.1462C41.2096 26.1299 41.9539 24.4101 42.4827 23.3352C43.0115 22.2603 44.0299 20.5014 44.735 19.4265C45.4401 18.3516 46.4977 16.8663 47.1049 16.1042C47.712 15.342 48.9067 13.9935 49.7685 13.0945C50.6499 12.1955 52.2363 10.7493 53.3135 9.88937C54.3907 9.02946 55.3112 8.28681 55.37 8.22818C55.4287 8.16955 55.2916 8.18909 55.0762 8.26726C54.8607 8.34544 53.9402 8.85357 53.0197 9.40078C52.0992 9.948 50.5519 10.9838 49.5922 11.7264C48.613 12.4495 47.1832 13.6417 46.3802 14.3843C45.5772 15.1074 44.2258 16.5537 43.364 17.5699C42.5218 18.5862 41.4055 20.0324 40.8962 20.7946C40.387 21.5568 39.5644 22.8662 39.0552 23.7261C38.5656 24.586 37.8996 25.8563 37.5863 26.5599C37.2729 27.2634 36.6853 28.7096 36.3132 29.7845C35.9215 30.8594 35.471 32.3056 35.2948 33.0092C35.1185 33.7127 34.7855 35.2567 34.5897 36.4293C34.3742 37.6214 34.2176 39.224 34.2176 40.0057C34.2176 40.7679 34.1588 41.4128 34.0609 41.4128C33.9825 41.4128 33.7475 41.0024 33.5517 40.4747C33.3362 39.9666 32.7486 38.6767 32.2198 37.6019C31.6714 36.527 30.9468 35.1589 30.5942 34.5726C29.9675 33.5564 29.9283 33.4391 30.1046 32.4229C30.2025 31.8366 30.3984 30.8203 30.5551 30.1754C30.7117 29.5304 31.0447 28.2992 31.2797 27.4393C31.5148 26.5794 32.1023 24.8596 32.592 23.6284C33.062 22.3971 33.8454 20.6382 34.3155 19.7197C34.7855 18.8011 35.8823 17.0032 36.7245 15.7133C37.5667 14.4234 38.9181 12.6254 39.7211 11.7069C40.5241 10.7884 41.993 9.34215 42.9527 8.48224C43.932 7.62233 45.5184 6.3911 46.4781 5.72663C47.4378 5.0817 48.7892 4.22179 49.4943 3.83092C50.1994 3.4596 51.7271 2.73649 52.9218 2.24791C54.0969 1.77887 55.9967 1.15348 57.1327 0.879872C58.2686 0.606264 59.5417 0.313114 59.9726 0.215397C60.4035 0.0981368 60.8735 0.0199633 60.991 0.000419933H61.0106ZM9.69644 28.6119C10.6365 29.3741 12.2034 30.7812 13.1827 31.7389C14.1424 32.716 15.435 34.1231 16.0422 34.8658C16.6493 35.628 17.7461 37.1133 18.4512 38.1882C19.1759 39.263 20.2922 41.1978 20.919 42.4877C21.5653 43.7776 22.3879 45.6733 22.76 46.6895C23.1126 47.7058 23.7001 49.6406 24.0135 50.9891C24.3464 52.3376 24.7577 54.5069 24.9144 55.8358C25.0907 57.1452 25.2278 59.3927 25.2278 60.8194C25.2278 62.2265 25.169 63.6923 25.0907 64.044C24.9862 64.461 24.8165 64.6694 24.5815 64.6694C24.4052 64.6694 23.6022 64.4349 22.8188 64.1613C22.0549 63.8682 20.5468 63.2232 19.4892 62.6955C18.4512 62.1679 17.0802 61.4057 16.4535 61.0148C15.8463 60.624 14.632 59.764 13.7702 59.1191C12.9085 58.4742 11.4396 57.1843 10.519 56.2658C9.59851 55.3472 8.52131 54.1942 8.1296 53.6861C7.73788 53.1584 7.34617 52.7871 7.24824 52.8261C7.1699 52.8652 6.89571 53.8424 6.62151 55.015C6.19062 56.8716 6.13187 57.6143 6.13187 60.663C6.13187 63.3796 6.21021 64.5522 6.50399 65.842C6.69985 66.7606 7.09156 68.1677 7.34617 68.969C7.62037 69.7702 8.18835 71.1187 8.59965 71.9591C9.03053 72.7799 9.65727 73.933 10.0294 74.4997C10.3819 75.047 11.087 76.0437 11.6158 76.6886C12.1251 77.3335 13.2218 78.5061 14.0444 79.2879C14.867 80.0696 16.3751 81.2813 17.3936 81.9653C18.412 82.6493 19.8613 83.4897 20.6252 83.8415C21.3694 84.1737 22.7404 84.7014 23.6609 84.9945C24.5815 85.3072 25.7174 85.6004 26.2071 85.6786C27.0688 85.7763 27.108 85.8154 28.0677 87.457C28.5965 88.3755 29.1057 89.1182 29.1841 89.0986C29.282 89.0986 29.3408 82.5321 29.3408 74.4802C29.3408 62.3829 29.282 59.4904 29.0274 57.5361C28.8707 56.2462 28.5573 54.3505 28.3223 53.3343C28.1069 52.318 27.6172 50.5591 27.2647 49.4256C26.8926 48.2921 25.972 46.1423 25.2474 44.6375C24.5031 43.1326 23.3867 41.1588 22.76 40.2402C22.1529 39.3217 21.2519 38.0904 20.7623 37.5041C20.2922 36.9178 19.1759 35.6866 18.3141 34.7876C17.4327 33.8886 16.1401 32.6574 15.435 32.0515C14.7299 31.4457 13.3589 30.4099 12.3992 29.765C11.42 29.12 10.049 28.2601 9.32431 27.8497C8.61923 27.4589 8.01208 27.1462 8.01208 27.1852C7.9925 27.2243 8.75633 27.8497 9.69644 28.6119Z" fill="url(#paint0_linear_417_42)"/>
<path d="M71.0384 103.502C71.0384 97.0333 71.0972 91.5416 71.1559 91.2875C71.2734 90.8575 71.3322 90.838 76.2286 90.9553L76.4245 111.28L82.2805 111.476L82.3001 113.489C82.3001 115.228 82.2609 115.541 81.9476 115.697C81.7713 115.795 79.2839 115.873 76.4245 115.873C71.9785 115.873 71.2147 115.834 71.1363 115.58C71.0776 115.424 71.0384 109.991 71.0384 103.502Z" fill="#A9CF46"/>
<path fill-rule="evenodd" clip-rule="evenodd" d="M135.279 90.369C137.766 90.408 138.687 90.5058 139.294 90.7598C139.725 90.9357 140.332 91.3266 140.626 91.6002C140.939 91.8933 141.331 92.4406 141.507 92.8119C141.801 93.4177 141.84 94.7076 141.938 115.678L141.292 115.795C140.959 115.854 139.784 115.873 136.748 115.775L136.65 107.469L136.102 107.391C135.808 107.352 135.122 107.333 134.594 107.372C134.058 107.411 133.373 107.443 132.537 107.469V111.574C132.537 115.678 132.537 115.678 132.087 115.775C131.852 115.834 130.676 115.873 127.347 115.775V105.026C127.347 95.0203 127.367 94.1995 127.719 93.2027C127.915 92.6164 128.267 91.9129 128.502 91.6784C128.718 91.4243 129.227 91.0725 129.599 90.9162C129.971 90.7403 130.676 90.5253 131.166 90.4471C131.656 90.369 133.497 90.3299 135.279 90.369V90.369ZM132.635 94.434C132.576 94.6685 132.557 96.7596 132.576 99.0658L132.635 103.268L136.65 103.365L136.552 94.0822C134.084 93.9258 133.223 93.9063 133.046 93.9454C132.89 93.9845 132.694 94.1995 132.635 94.434Z" fill="#A9CF46"/>
<path d="M109.916 90.8966C110.229 90.7207 111.169 90.5253 111.972 90.4471C112.775 90.369 114.362 90.3299 115.498 90.369C116.634 90.408 117.985 90.5448 118.514 90.7012C119.18 90.8771 119.669 91.1898 120.218 91.7956C120.629 92.2451 121.06 92.9487 121.177 93.3591C121.275 93.75 121.373 94.7662 121.373 97.1114H116.477L116.418 95.9388C116.399 95.1375 116.281 94.688 116.085 94.5708C115.929 94.4731 115.145 94.3753 114.362 94.3753C113.147 94.3753 112.932 94.434 112.756 94.7662C112.658 94.9812 112.579 96.232 112.579 97.5609C112.599 98.8703 112.697 100.102 112.775 100.297C112.932 100.59 113.324 100.629 115.733 100.688C117.887 100.746 118.71 100.825 119.317 101.098C119.748 101.294 120.257 101.626 120.472 101.86C120.668 102.095 121.021 102.681 121.256 103.17C121.628 103.971 121.667 104.382 121.667 108.153C121.667 111.534 121.608 112.433 121.334 113.235C121.138 113.782 120.707 114.505 120.355 114.837C120.002 115.189 119.395 115.56 119.023 115.678C118.651 115.795 117.182 115.932 115.791 115.99C114.381 116.068 112.54 116.01 111.678 115.893C110.634 115.749 109.896 115.534 109.465 115.248C109.113 114.994 108.584 114.329 108.29 113.723C107.82 112.766 107.761 112.433 107.761 108.544L110.014 108.486C111.404 108.466 112.344 108.525 112.462 108.642C112.56 108.759 112.638 109.404 112.619 110.069C112.599 110.733 112.677 111.437 112.775 111.632C112.932 111.925 113.206 111.964 116.575 111.867L116.634 108.837C116.653 107.176 116.614 105.75 116.536 105.671C116.438 105.593 115.223 105.496 113.833 105.417C112.442 105.359 110.934 105.222 110.503 105.105C110.072 104.987 109.407 104.557 109.015 104.167C108.545 103.717 108.192 103.092 107.977 102.388C107.742 101.587 107.663 100.492 107.663 97.9909C107.663 95.6261 107.742 94.3363 107.957 93.4959C108.153 92.8119 108.486 92.0888 108.799 91.7761C109.093 91.4634 109.602 91.0725 109.916 90.8966Z" fill="#A9CF46"/>
<path fill-rule="evenodd" clip-rule="evenodd" d="M95.4224 90.369C96.813 90.408 98.2819 90.5448 98.654 90.6817C99.0262 90.7989 99.6333 91.1116 99.9859 91.3657C100.319 91.6197 100.808 92.2451 101.063 92.7728C101.494 93.6913 101.494 93.75 101.611 115.58L101.161 115.717C100.906 115.795 99.9271 115.873 98.9478 115.873C97.9685 115.873 96.9893 115.834 96.7347 115.775C96.3038 115.678 96.3038 115.658 96.2058 107.43L94.404 107.45C93.4051 107.469 92.4846 107.469 92.3867 107.469C92.2691 107.469 92.1908 108.955 92.1908 115.58L91.5641 115.736C91.2115 115.814 90.3106 115.873 89.5468 115.873C88.7829 115.873 87.882 115.814 86.8831 115.58L86.9419 104.636C87.0006 94.5903 87.0202 93.6327 87.3532 92.9096C87.549 92.4796 87.9407 91.8738 88.2345 91.5806C88.5283 91.2875 89.0767 90.9357 89.4488 90.8185C89.821 90.7012 90.7415 90.5448 91.5053 90.4471C92.2691 90.369 94.0318 90.3299 95.4224 90.369V90.369ZM92.2887 94.0822L92.1908 103.365H96.3038C96.3038 96.2515 96.245 94.1408 96.1667 94.1017C96.0687 94.0627 95.7945 94.004 95.5204 93.9454C95.2462 93.9063 94.4236 93.9258 93.6597 93.9845L92.2887 94.0822Z" fill="#A9CF46"/>
<path d="M117.652 83.6265V75.4183V67.2101H125.095V70.1416H121.177V73.8548H124.899V76.5909H121.177V80.695H125.095V83.6265H117.652Z" fill="#048468"/>
<path d="M111.776 83.6265V75.4183V67.2101H115.302V83.6265H111.776Z" fill="#048468"/>
<path d="M159.761 83.6265V75.3792V67.1124L163.286 67.2101V83.6265H159.761Z" fill="#048468"/>
<path d="M137.433 70.1416V68.6367V67.1124L146.443 67.2101V70.1416H143.701V83.6265H140.175V70.1416H137.433Z" fill="#048468"/>
<path fill-rule="evenodd" clip-rule="evenodd" d="M100.025 67.1124L103.903 67.2101C106.978 67.2883 107.879 67.3664 108.251 67.6205C108.525 67.7768 108.897 68.2459 109.093 68.6367C109.348 69.184 109.426 69.8484 109.426 71.3142C109.426 73.249 109.426 73.2685 108.153 74.5975L109.524 75.7505L109.583 78.6625C109.642 81.4377 109.622 81.6135 109.191 82.2585C108.936 82.6298 108.427 83.0988 108.055 83.2747C107.468 83.5679 106.802 83.6265 100.025 83.6265V67.1124ZM103.55 73.8548H105.901L105.803 69.653L103.57 69.5357L103.55 73.8548ZM103.648 81.1836C104.569 81.2813 105.117 81.2618 105.47 81.2031L106.097 81.0859V76.3955H103.531L103.648 81.1836Z" fill="#048468"/>
<path d="M165.93 68.2068C166.165 67.8159 166.655 67.4055 167.106 67.1905C167.713 66.8974 168.379 66.8192 170.141 66.8192C171.904 66.8192 172.531 66.8974 173.06 67.171C173.432 67.3469 173.921 67.7573 174.137 68.0504C174.45 68.4608 174.568 68.9494 174.646 71.3142H171.316L171.219 69.653H169.064L168.966 73.4639L170.866 73.5226C172.355 73.5617 172.942 73.6594 173.451 73.9525C173.804 74.1675 174.274 74.6561 174.47 75.0274C174.783 75.6137 174.842 76.1609 174.842 78.6429C174.842 81.0468 174.783 81.6917 174.489 82.2389C174.313 82.6102 173.902 83.0988 173.608 83.3138C173.138 83.6656 172.707 83.7438 170.572 83.8024C168.457 83.861 167.948 83.8024 167.204 83.4897C166.538 83.2161 166.224 82.9229 165.95 82.3366C165.735 81.9262 165.519 80.9295 165.343 78.7407H168.966V81.0859L171.414 80.9881V76.884L169.456 76.7668C168.281 76.7081 167.262 76.5323 166.91 76.3564C166.596 76.2 166.146 75.7114 165.93 75.301C165.598 74.6365 165.539 74.1675 165.539 71.705C165.539 69.2426 165.598 68.7931 165.93 68.2068Z" fill="#048468"/>
<path fill-rule="evenodd" clip-rule="evenodd" d="M152.828 66.8779C155.452 66.9169 155.609 66.9365 156.255 67.4251C156.725 67.7769 156.999 68.1873 157.156 68.8322C157.332 69.4771 157.411 71.7637 157.411 83.6265H153.885V78.1544H151.143V83.6265H147.618V76.4932C147.618 70.1416 147.657 69.2621 147.951 68.539C148.147 68.1091 148.519 67.5814 148.793 67.4055C149.067 67.2101 149.459 67.0147 149.674 66.956C149.89 66.8974 151.3 66.8583 152.828 66.8779V66.8779ZM151.104 72.4868L151.143 75.4183H153.885C153.885 69.7507 153.866 69.5358 153.494 69.3599C153.278 69.2621 152.808 69.1644 152.456 69.1644C152.123 69.1644 151.653 69.2621 151.457 69.3794C151.104 69.5553 151.085 69.7898 151.104 72.4868V72.4868Z" fill="#048468"/>
<path d="M127.641 67.64C127.817 67.4055 128.267 67.1319 128.64 67.0342C129.012 66.9365 130.343 66.8387 131.597 66.8387C133.242 66.8192 134.124 66.8974 134.633 67.1123C135.064 67.2882 135.592 67.7182 136.356 68.8517L136.454 83.6265L132.831 83.5288L132.635 69.4576H130.481L130.383 83.6265H126.857V76.5323C126.857 71.705 126.916 69.2426 127.073 68.7735C127.21 68.4022 127.445 67.8941 127.641 67.64Z" fill="#048468"/>
<path d="M83.4752 67.4837C83.7886 67.2492 84.2391 67.0146 84.4545 66.956C84.67 66.8974 85.7276 66.8583 86.8244 66.8778C88.6262 66.9169 88.8417 66.956 90.1343 67.9527L90.6827 67.4837C90.9961 67.1905 91.5837 66.956 92.1517 66.8974C92.6609 66.8192 93.7381 66.7997 94.5803 66.8387C95.6966 66.8974 96.2059 67.0146 96.6367 67.3273C96.9305 67.5423 97.3222 67.9918 97.4789 68.3045C97.714 68.7735 97.7727 70.1416 97.8706 83.6265H94.3452L94.2473 69.4576L91.995 69.3598L91.897 83.5288L88.2737 83.6265L88.1758 69.4576H86.0214L85.9234 83.6265H82.398V76.5323C82.398 71.4705 82.4764 69.2426 82.6527 68.6954C82.7898 68.2654 83.1423 67.7377 83.4752 67.4837Z" fill="#048468"/>
<path fill-rule="evenodd" clip-rule="evenodd" d="M75.2493 66.8192C77.2862 66.8192 77.9325 66.8974 78.4809 67.171C78.8531 67.3469 79.3623 67.8159 79.6169 68.1872C80.0674 68.8713 80.0674 68.8713 80.0478 83.6265H76.5224V78.1544H73.9762V83.6265H70.4508V76.2391C70.4313 68.8713 70.4313 68.8713 70.8817 68.1872C71.1363 67.8159 71.6456 67.3469 72.0177 67.171C72.5661 66.8974 73.2124 66.8192 75.2493 66.8192ZM73.9371 72.4086L73.9762 75.4183H76.5224C76.5224 69.868 76.4636 69.3403 76.2286 69.2621C76.0719 69.2035 75.6019 69.1644 75.1906 69.1839C74.7988 69.1839 74.3288 69.2426 74.1917 69.3012C73.9567 69.3794 73.8979 69.9266 73.9371 72.4086V72.4086Z" fill="#048468"/>
<path d="M163.482 59.1973V50.9891V42.7809H171.121V45.7124H167.008V49.4256H170.729V52.1617L167.106 52.2594V56.1681L171.121 56.2658V59.1973H163.482Z" fill="#048468"/>
<path d="M119.806 59.1973V50.9891V42.7809H123.332L123.43 56.1681L127.249 56.2658V59.1973H119.806Z" fill="#048468"/>
<path d="M82.398 59.1973V50.9891V42.7809H90.0364V45.7124H85.9234V49.4256H89.6447V52.1617L86.0214 52.2594V56.1681L90.0364 56.2658V59.1973H82.398Z" fill="#048468"/>
<path fill-rule="evenodd" clip-rule="evenodd" d="M70.4509 42.7809H74.3288C77.6975 42.7809 78.2655 42.8199 78.7747 43.1326C79.0881 43.3281 79.519 43.8167 79.7148 44.2075C80.0086 44.8525 80.0478 45.6146 80.0478 50.8914C80.0478 55.5036 79.989 56.9889 79.7736 57.497C79.6365 57.8292 79.2644 58.3374 78.9902 58.611C78.4614 59.0996 78.4222 59.0996 70.4509 59.1973V42.7809ZM73.9763 56.8521C75.5039 56.8521 76.0719 56.813 76.2286 56.7544C76.4832 56.6762 76.5224 55.8358 76.5224 50.8914V45.1261H73.9763V56.8521Z" fill="#048468"/>
<path d="M128.973 57.8097C128.659 57.2039 128.62 56.4026 128.62 49.8751V42.5854H132.145L132.243 56.7544H134.398L134.496 42.5854H138.021V49.8556C138.021 56.4026 137.982 57.2039 137.669 57.8097C137.492 58.181 137.081 58.6696 136.787 58.8846C136.278 59.2559 135.945 59.295 133.321 59.295C130.696 59.295 130.363 59.2559 129.854 58.8846C129.56 58.6696 129.149 58.181 128.973 57.8097Z" fill="#048468"/>
<path d="M174.098 42.8395C174.333 42.7222 174.685 42.5659 174.842 42.5268C174.999 42.4682 176.154 42.4095 177.388 42.4095C179.17 42.39 179.777 42.4682 180.306 42.7418C180.678 42.9177 181.168 43.3281 181.383 43.6212C181.697 44.0316 181.814 44.5202 181.893 46.885H178.563L178.465 45.2238H176.311L176.193 48.937L178.211 49.0347C179.797 49.1325 180.345 49.2302 180.816 49.5429C181.129 49.7774 181.56 50.266 181.736 50.6764C182.03 51.2431 182.089 51.9272 182.089 54.2724C182.089 56.6176 182.03 57.2625 181.736 57.8097C181.56 58.181 181.148 58.6696 180.855 58.8846C180.345 59.2559 180.012 59.295 177.506 59.295C175.39 59.295 174.568 59.2168 174.176 59.0019C173.882 58.8455 173.471 58.4351 173.255 58.1224C173.02 57.7511 172.844 56.9498 172.59 54.3114H176.213L176.311 56.5589H178.661V52.4548L176.703 52.3376C175.625 52.2789 174.529 52.1226 174.254 51.9662C173.98 51.8294 173.608 51.5167 173.432 51.3018C173.255 51.0672 173.001 50.4028 172.864 49.8165C172.746 49.2106 172.668 47.823 172.727 46.5918C172.785 44.8329 172.883 44.3248 173.216 43.758C173.451 43.3867 173.843 42.9763 174.098 42.8395Z" fill="#048468"/>
<path fill-rule="evenodd" clip-rule="evenodd" d="M156.392 42.4095C158.253 42.39 158.958 42.4681 159.585 42.7222C160.094 42.9372 160.564 43.3281 160.819 43.758C161.21 44.4225 161.23 44.657 161.23 50.8913C161.23 56.813 161.191 57.3797 160.877 57.927C160.682 58.2396 160.27 58.6891 159.996 58.9041C159.526 59.2559 159.154 59.295 156.392 59.295C153.592 59.295 153.278 59.2559 152.769 58.8846C152.475 58.6696 152.064 58.181 151.888 57.8097C151.574 57.2234 151.535 56.4612 151.535 50.9304C151.535 46.1423 151.594 44.5984 151.809 44.0902C151.946 43.758 152.24 43.3085 152.436 43.1326C152.651 42.9372 153.082 42.7027 153.396 42.605C153.729 42.5072 155.06 42.4095 156.392 42.4095ZM155.021 50.8718C155.041 55.1713 155.119 56.6175 155.296 56.813C155.433 56.9498 155.883 57.0475 156.294 57.0475C156.686 57.0475 157.156 57.0084 157.313 56.9498C157.567 56.8716 157.607 56.0117 157.607 50.8913V44.9306C156.921 44.7743 156.451 44.7352 156.138 44.7352C155.805 44.7352 155.413 44.8329 155.256 44.9697C155.041 45.1651 154.982 46.2205 155.021 50.8718V50.8718Z" fill="#048468"/>
<path d="M140.685 43.6212C140.9 43.3281 141.39 42.9176 141.762 42.7417C142.291 42.4681 142.937 42.39 144.915 42.39C146.991 42.39 147.54 42.4486 148.147 42.7613C148.558 42.9763 149.067 43.4258 149.263 43.7971C149.479 44.1684 149.674 45.0283 149.87 47.2954L146.345 47.1781L146.286 46.0446C146.247 45.0674 146.188 44.9111 145.797 44.8329C145.561 44.7743 145.091 44.7352 144.778 44.7352C144.445 44.7156 144.073 44.8329 143.955 44.9697C143.76 45.1651 143.72 46.67 143.799 56.9498H146.149L146.345 54.0183L149.87 53.901L149.753 55.6208C149.694 56.5589 149.498 57.6143 149.342 57.9269C149.165 58.2396 148.813 58.6696 148.519 58.8455C148.245 59.0409 147.638 59.2559 147.187 59.3341C146.443 59.4709 146.345 59.5686 145.17 61.9333H141.449L142.154 61.2102C142.545 60.7998 143.055 60.2526 143.72 59.4904L142.78 59.3536C142.271 59.2559 141.644 59.0605 141.39 58.9041C141.155 58.7478 140.783 58.2592 140.567 57.8292C140.195 57.0866 140.175 56.7153 140.215 50.6177C140.273 44.442 140.293 44.1489 140.685 43.6212Z" fill="#048468"/>
<path fill-rule="evenodd" clip-rule="evenodd" d="M112.658 42.39C114.695 42.39 115.341 42.4681 115.889 42.7417C116.261 42.9176 116.771 43.3867 117.025 43.758C117.456 44.442 117.476 44.5007 117.476 50.8913C117.476 57.282 117.456 57.3406 117.025 58.0247C116.771 58.396 116.261 58.865 115.889 59.0409C115.341 59.3145 114.695 59.3927 112.658 59.3927C110.543 59.3927 109.975 59.3145 109.328 59.0018C108.819 58.7673 108.427 58.3764 108.192 57.9465C107.898 57.3211 107.859 56.5394 107.859 50.8913C107.859 45.2433 107.898 44.4616 108.192 43.8557C108.427 43.4062 108.839 43.0154 109.328 42.7808C109.975 42.4486 110.523 42.39 112.658 42.39ZM111.346 50.9891C111.385 56.0117 111.424 56.8716 111.678 56.9498C111.835 57.0084 112.207 57.0475 112.521 57.0475C112.814 57.0475 113.245 57.0084 113.5 56.9498L113.931 56.8521C113.931 45.771 113.892 44.9111 113.637 44.8329C113.48 44.7743 113.049 44.7352 112.697 44.7352C112.364 44.7352 111.894 44.8329 111.698 44.9502C111.326 45.1456 111.326 45.3996 111.346 50.9891V50.9891Z" fill="#048468"/>
<path d="M96.9305 43.758C97.1851 43.3867 97.6944 42.9176 98.0665 42.7417C98.5953 42.4681 99.2416 42.39 101.004 42.39C102.806 42.39 103.413 42.4681 104.04 42.7613C104.53 42.9958 104.941 43.3867 105.156 43.7971C105.333 44.1489 105.489 44.872 105.509 45.4192C105.548 45.9469 105.548 46.5136 105.529 46.6309C105.509 46.8068 105.039 46.8849 102.179 46.8849L102.121 46.0446C102.082 45.2628 102.062 45.2238 101.396 45.1651C101.024 45.126 100.515 45.1456 100.26 45.2042C99.8488 45.3215 99.8292 45.3996 99.9271 48.937L101.984 49.0738C103.276 49.1715 104.197 49.3279 104.471 49.5233C104.726 49.6796 105.098 50.1096 105.313 50.4418C105.666 51.0086 105.705 51.4385 105.705 54.1551C105.705 56.6957 105.646 57.3602 105.372 57.9465C105.137 58.3764 104.745 58.7673 104.236 59.0018C103.609 59.3145 103.022 59.3927 101.2 59.3927C99.9663 59.3927 98.6345 59.295 98.2623 59.1777C97.7923 59.0409 97.4006 58.7282 97.0285 58.1615C96.5584 57.4384 96.4996 57.1452 96.4996 54.3114H99.8292L99.9271 56.5589H102.277V52.4548L100.221 52.318C98.6541 52.2203 98.0469 52.103 97.6748 51.8294C97.4006 51.6144 97.0285 51.1454 96.8522 50.7741C96.5584 50.2269 96.4996 49.5819 96.4996 47.2758C96.4801 44.6375 96.5192 44.4029 96.9305 43.758Z" fill="#048468"/>
<path d="M152.749 39.8884C152.984 39.5367 153.454 39.1262 153.768 38.9699C154.101 38.8135 154.649 38.6963 154.963 38.6963C155.296 38.6963 156.04 38.8526 156.627 39.0676C157.215 39.2826 157.998 39.4389 158.351 39.4585C158.703 39.4585 159.232 39.263 159.585 39.009C159.99 38.7223 160.257 38.6442 160.388 38.7745C160.486 38.8917 160.525 39.224 160.447 39.5562C160.368 39.8689 160.035 40.4161 159.683 40.7483C159.35 41.1001 158.821 41.4324 158.488 41.5105C158.077 41.6278 157.45 41.5301 156.431 41.1978C155.628 40.9633 154.688 40.7483 154.336 40.7483C153.964 40.7288 153.552 40.8851 153.259 41.1588C153.024 41.4128 152.691 41.6083 152.573 41.6083C152.416 41.6083 152.319 41.3737 152.319 41.061C152.319 40.7679 152.514 40.2402 152.749 39.8884Z" fill="#048468"/>
<path d="M175.038 34.5726V26.3644V18.1562H178.563V34.5726H175.038Z" fill="#048468"/>
<path fill-rule="evenodd" clip-rule="evenodd" d="M163.091 18.1562H166.871C170.474 18.1367 170.651 18.1562 171.317 18.6057C171.689 18.8402 172.139 19.3093 172.276 19.622C172.433 19.9542 172.609 21.0095 172.648 21.9672C172.707 22.9834 172.648 24.0388 172.511 24.4687C172.394 24.8596 172.061 25.3677 171.747 25.6022C171.277 25.9736 171.258 26.0126 171.552 26.1885C171.747 26.2863 172.041 26.6771 172.198 27.0484C172.413 27.5761 172.492 28.5533 172.492 34.5726H168.966V31.5434C168.966 29.8822 168.927 28.3774 168.868 28.221C168.79 28.0061 168.477 27.9279 166.616 27.9279V34.5726H163.091L163.091 18.1562ZM166.616 25.3873C168.653 25.3873 168.986 25.3091 169.064 25.0941C169.123 24.9378 169.162 23.9606 169.162 22.9443C169.162 21.9281 169.123 20.9509 169.064 20.7946C168.986 20.5796 168.653 20.5014 167.791 20.5014H166.616V25.3873Z" fill="#048468"/>
<path d="M140.175 21.0877V19.622V18.1562H148.989V21.0877H146.247V34.5726H142.722V21.0877H140.175Z" fill="#048468"/>
<path fill-rule="evenodd" clip-rule="evenodd" d="M116.673 18.1562H120.453C124.057 18.1367 124.233 18.1562 124.899 18.6057C125.271 18.8402 125.702 19.3093 125.858 19.622C126.015 19.9542 126.172 20.8141 126.231 21.5763C126.289 22.3385 126.25 23.3938 126.172 23.9215C126.074 24.6251 125.858 25.0746 125.447 25.485C124.957 25.9736 124.918 26.0908 125.173 26.2276C125.349 26.3058 125.623 26.6771 125.78 27.0484C125.996 27.5761 126.074 28.5533 126.074 34.5726H122.548L122.451 28.0256L120.198 27.9279V34.5726H116.673V18.1562ZM120.198 25.3873C122.431 25.3873 122.548 25.3482 122.646 24.9378C122.705 24.7032 122.744 23.8042 122.744 22.9443C122.744 22.0844 122.705 21.1854 122.646 20.9314C122.548 20.5405 122.431 20.5014 121.373 20.5014H120.198V25.3873Z" fill="#048468"/>
<path fill-rule="evenodd" clip-rule="evenodd" d="M91.995 18.1562H95.7162C97.7727 18.1562 99.6529 18.2344 99.9271 18.3517C100.201 18.4689 100.534 18.6643 100.671 18.8012C100.828 18.9184 101.083 19.3288 101.259 19.6806C101.494 20.1106 101.592 20.7946 101.592 21.9672C101.592 22.8857 101.474 23.9215 101.337 24.2733C101.2 24.6055 100.887 25.0355 100.201 25.485L100.711 25.8368C100.985 26.0127 101.337 26.4817 101.494 26.853C101.709 27.3416 101.788 28.2406 101.788 29.9409C101.788 31.817 101.709 32.462 101.435 32.9896C101.259 33.361 100.848 33.8495 100.554 34.0645C100.045 34.4358 99.6921 34.4749 91.995 34.5726L91.995 18.1562ZM95.6575 22.7098L95.7162 24.801L97.9686 24.7032V20.5991C96.2842 20.5014 95.7554 20.521 95.6966 20.5601C95.6379 20.5991 95.6183 21.5568 95.6575 22.7098V22.7098ZM95.7162 32.2274C97.3418 32.247 97.8706 32.1297 98.0077 31.9929C98.184 31.817 98.2428 31.0939 98.2036 29.5891L98.1644 27.4393L95.7358 27.3221L95.7162 32.2274Z" fill="#048468"/>
<path d="M70.4509 34.5726V26.3644V18.1562H73.9763V31.6411H77.8934V34.5726H70.4509Z" fill="#048468"/>
<path fill-rule="evenodd" clip-rule="evenodd" d="M155.648 17.7849C157.665 17.7654 158.233 17.8435 158.88 18.1367C159.389 18.3907 159.8 18.7816 160.055 19.2702C160.427 19.9738 160.447 20.3842 160.447 26.2667C160.447 32.1297 160.427 32.5597 160.055 33.2828C159.761 33.8495 159.428 34.1622 158.782 34.4358C158.018 34.7681 157.548 34.8072 155.217 34.7485C152.926 34.6899 152.475 34.6117 152.005 34.2795C151.731 34.0645 151.32 33.5759 151.124 33.2046C150.771 32.5792 150.752 32.0125 150.752 26.3058C150.752 21.5177 150.81 19.9738 151.026 19.4656C151.163 19.1334 151.457 18.6839 151.653 18.508C151.868 18.3126 152.299 18.078 152.612 17.9803C152.926 17.8826 154.297 17.7849 155.648 17.7849V17.7849ZM154.238 26.1299C154.257 30.5076 154.336 31.9929 154.512 32.1884C154.649 32.3252 155.1 32.4229 155.491 32.4229C155.903 32.4229 156.373 32.3838 156.529 32.3252C156.784 32.247 156.823 31.3871 156.823 26.2667C156.823 21.1464 156.784 20.2864 156.529 20.2083C156.373 20.1496 155.903 20.1106 155.491 20.1301C155.1 20.1301 154.63 20.1887 154.473 20.2474C154.238 20.3255 154.199 21.2245 154.238 26.1299V26.1299Z" fill="#048468"/>
<path fill-rule="evenodd" clip-rule="evenodd" d="M133.516 17.7849C135.573 17.7654 136.082 17.824 136.748 18.1562C137.179 18.3517 137.708 18.8207 137.923 19.1725C138.295 19.7783 138.315 20.1692 138.315 34.4749H134.789V29.1005H132.145V34.5727H128.62V27.3416C128.62 21.8108 128.679 19.9542 128.875 19.4656C129.012 19.1334 129.403 18.6448 129.717 18.4298C130.03 18.1953 130.461 17.9608 130.676 17.9022C130.892 17.8631 132.165 17.8045 133.516 17.7849V17.7849ZM132.106 23.472L132.145 26.3644H134.692C134.692 20.8141 134.633 20.2865 134.398 20.2083C134.241 20.1497 133.771 20.1106 133.36 20.1106C132.948 20.1106 132.498 20.2083 132.341 20.3451C132.126 20.521 132.067 21.205 132.106 23.472Z" fill="#048468"/>
<path fill-rule="evenodd" clip-rule="evenodd" d="M109.132 17.7654C111.15 17.7654 111.835 17.8435 112.462 18.1171C113.01 18.3712 113.363 18.723 113.637 19.2506C114.009 19.9738 114.029 20.4037 114.029 26.2667C114.029 32.1297 114.009 32.5597 113.637 33.2828C113.343 33.8495 113.01 34.1622 112.364 34.4358C111.6 34.7681 111.13 34.8072 108.819 34.7485C106.273 34.6704 106.136 34.6508 105.45 34.1427C104.98 33.7909 104.647 33.3414 104.51 32.8724C104.373 32.3838 104.334 29.9018 104.373 25.8368C104.432 19.9151 104.451 19.5243 104.824 19.0161C105.039 18.7425 105.529 18.3321 105.901 18.1367C106.469 17.824 106.998 17.7654 109.132 17.7654V17.7654ZM107.82 26.2863L107.859 32.2274C108.545 32.3838 108.976 32.4229 109.289 32.4229C109.583 32.4229 109.955 32.3838 110.112 32.3252C110.366 32.247 110.405 31.3871 110.405 26.2667C110.405 21.1464 110.366 20.2864 110.112 20.2083C109.955 20.1496 109.485 20.1106 109.093 20.1301C108.682 20.1301 108.212 20.1887 108.055 20.2474C107.82 20.3255 107.781 21.2441 107.82 26.2863Z" fill="#048468"/>
<path fill-rule="evenodd" clip-rule="evenodd" d="M84.4545 17.7654C86.5698 17.7654 87.1378 17.8435 87.7841 18.1562C88.2933 18.3907 88.685 18.7816 88.92 19.2116C89.2138 19.8369 89.253 20.6578 89.253 34.5726H85.7276V29.1005H83.1815V34.5726H79.6561V27.2439C79.6561 20.6578 79.6952 19.8369 80.0086 19.2311C80.224 18.7816 80.6353 18.3907 81.125 18.1562C81.7909 17.824 82.3197 17.7654 84.4545 17.7654ZM83.1423 23.3548L83.1815 26.3644H85.7276C85.7276 20.8141 85.6688 20.2864 85.4338 20.2083C85.2771 20.1496 84.8462 20.1301 84.4937 20.1301C84.1607 20.1496 83.6907 20.1887 83.4753 20.2474C83.1031 20.3255 83.0835 20.4819 83.1423 23.3548Z" fill="#048468"/>
<path d="M153.102 16.5927L154.14 15.3224L155.158 14.0521H156.999C158.077 14.0521 158.782 14.1303 158.664 14.228C158.566 14.3062 157.822 14.8925 157.019 15.4983C155.589 16.5732 155.511 16.5927 153.102 16.5927Z" fill="#048468"/>
<path fill-rule="evenodd" clip-rule="evenodd" d="M186.202 17.7849C188.238 17.7654 188.787 17.824 189.433 18.1562C189.864 18.3517 190.393 18.8207 190.608 19.1725C190.98 19.7783 191 20.1692 191 26.169C191 32.1297 190.98 32.5597 190.608 33.2828C190.315 33.8496 189.982 34.1622 189.335 34.4359C188.571 34.7681 188.101 34.8072 185.771 34.7486C183.44 34.6704 183.029 34.6117 182.539 34.26C182.245 34.045 181.834 33.5564 181.658 33.1851C181.344 32.5988 181.305 31.8366 181.305 26.3058C181.305 21.5177 181.364 19.9738 181.579 19.4656C181.716 19.1334 182.01 18.6839 182.206 18.508C182.422 18.3126 182.852 18.0781 183.166 17.9803C183.479 17.8826 184.85 17.7849 186.202 17.7849ZM184.791 26.2472C184.811 30.5467 184.889 31.9929 185.066 32.1884C185.203 32.3252 185.653 32.4229 186.045 32.4229C186.456 32.4229 186.926 32.3838 187.083 32.3252C187.337 32.247 187.377 31.3871 187.377 26.2667C187.377 21.1464 187.337 20.2865 187.083 20.2083C186.926 20.1497 186.456 20.1106 186.045 20.1106C185.634 20.1106 185.183 20.2083 185.026 20.3451C184.811 20.5405 184.752 21.5959 184.791 26.2472V26.2472Z" fill="#048468"/>
<defs>
<linearGradient id="paint0_linear_417_42" x1="31.6839" y1="0" x2="31.6839" y2="119" gradientUnits="userSpaceOnUse">
<stop stop-color="#018768"/>
<stop offset="1" stop-color="#A0C556"/>
</linearGradient>
</defs>
</svg>
