<svg width="119" height="119" viewBox="0 0 119 119" fill="none" xmlns="http://www.w3.org/2000/svg">
<path fill-rule="evenodd" clip-rule="evenodd" d="M89.0106 0.000419933C89.1477 -0.0191234 89.4415 0.645351 89.7353 1.60298C90.0095 2.48243 90.4012 4.00681 90.597 4.96444C90.8125 5.92206 91.0867 7.68096 91.2238 8.87311C91.3609 10.1434 91.4001 12.0978 91.3413 13.6612C91.263 15.1074 91.0671 17.14 90.8908 18.1562C90.7146 19.1725 90.362 20.7555 90.0878 21.674C89.8332 22.5926 89.2065 24.3515 88.7168 25.5827C88.2076 26.8139 87.5025 28.3578 87.1304 29.0028C86.7583 29.6477 86.1903 30.6249 85.8573 31.1525C85.5244 31.6998 84.8193 32.6965 84.2709 33.4C83.7421 34.1036 82.6061 35.4325 80.2363 38.0904L81.999 40.1034C82.9783 41.1978 84.2513 42.8004 84.8193 43.6603C85.3873 44.5202 86.3078 46.1032 86.8366 47.1781C87.385 48.253 88.1293 50.0901 88.521 51.2822C88.8931 52.4744 89.3827 54.2333 89.559 55.1909C89.8332 56.5198 89.9115 57.8683 89.9115 60.7608C89.9115 64.2395 89.8528 64.7867 89.3632 66.9169C89.0498 68.2068 88.5406 69.9657 88.2272 70.8256C87.9138 71.6855 87.3458 73.0535 86.9541 73.8548C86.5624 74.6561 85.8965 75.8873 85.446 76.5909C85.0152 77.2944 84.0946 78.5648 83.3896 79.4247C82.7041 80.2846 81.5289 81.5744 80.7847 82.3171C80.06 83.0402 78.7282 84.1542 77.8273 84.8186C76.9459 85.4831 75.7316 86.3039 75.144 86.6362C74.5565 86.988 73.2638 87.6329 72.3041 88.0628C71.3249 88.4928 69.993 89.04 69.3075 89.2745C68.6416 89.4895 67.4077 89.8608 66.5656 90.0758C65.743 90.2908 64.3916 90.5253 62.1196 90.7598L62.1784 92.1279C62.2176 92.8901 62.4134 94.1995 62.6289 95.0594C62.8443 95.9193 63.3535 97.2287 63.7452 97.9909C64.137 98.7335 64.7245 99.7107 65.0575 100.16C65.3708 100.61 66.1347 101.489 66.7222 102.134C67.3098 102.779 68.0736 103.834 68.4262 104.46C68.7591 105.085 69.19 106.18 69.3467 106.883C69.523 107.587 69.6601 108.603 69.6601 109.131C69.6601 109.678 69.523 110.675 69.3467 111.378C69.1704 112.082 68.7591 113.176 68.4066 113.801C68.0737 114.446 67.349 115.424 66.8202 115.99C66.2522 116.577 65.2337 117.339 64.372 117.788C63.569 118.199 62.433 118.648 61.865 118.785C61.3166 118.902 60.2982 119 59.6127 119C58.9468 119 57.9087 118.863 57.3212 118.707C56.7336 118.55 55.7152 118.16 55.0688 117.847C54.4225 117.534 53.4432 116.831 52.9144 116.323C52.366 115.795 51.7197 115.013 51.4259 114.603C51.1517 114.173 50.7404 113.352 50.5054 112.805C50.2704 112.238 49.9962 111.183 49.8787 110.46C49.7611 109.6 49.7611 108.642 49.8982 107.763C49.9962 106.961 50.3487 105.828 50.7208 105.026C51.093 104.264 51.9351 103.014 52.6402 102.193C53.3453 101.391 54.3442 100.121 54.8534 99.3589C55.3626 98.5967 55.9502 97.5023 56.1656 96.916C56.4007 96.3297 56.6944 95.3525 56.8511 94.7662C57.0078 94.1799 57.1449 93.0269 57.2232 90.7598L55.7543 90.623C54.9513 90.5253 53.5803 90.2908 52.7186 90.0563C51.8568 89.8413 50.525 89.4309 49.7807 89.1768C49.0169 88.9032 47.783 88.4146 47.0388 88.0824C46.2749 87.7306 45.0019 87.0661 44.1988 86.5971C43.3958 86.128 41.9857 85.1509 41.0652 84.4473C40.1446 83.7242 38.7149 82.4344 37.8727 81.5744C37.0305 80.7145 35.7575 79.1706 35.0328 78.1544C34.3081 77.1381 33.3484 75.5942 32.898 74.7343C32.4475 73.8744 31.7816 72.3891 31.3899 71.4119C31.0178 70.4347 30.5477 68.9885 30.3323 68.1872C30.1168 67.386 29.823 66.0179 29.6859 65.158C29.5488 64.2981 29.4313 62.1874 29.4313 60.4676C29.4313 58.4156 29.5488 56.7348 29.7643 55.5818C29.9406 54.6241 30.3323 52.9825 30.6456 51.9662C30.959 50.95 31.4291 49.5819 32.1146 47.7644L31.3899 46.2987C30.9786 45.4974 30.3127 43.8167 29.9014 42.5854C29.4901 41.3542 28.9613 39.4585 28.7458 38.3836C28.5304 37.3087 28.2562 35.3348 28.1191 33.9863C28.0016 32.6378 27.9624 30.7031 28.0408 29.6868C28.0995 28.6705 28.2562 27.1657 28.3541 26.3644C28.4716 25.5631 28.8242 23.8824 29.1375 22.6512C29.4509 21.42 29.823 20.1105 29.9601 19.7588C30.0972 19.3679 30.3323 19.1334 30.5281 19.1334C30.724 19.1334 31.9187 19.3679 33.1722 19.6415C34.4452 19.9347 36.4038 20.521 37.5398 20.9509C38.6757 21.3809 40.3405 22.1235 41.261 22.6121C42.1815 23.0811 43.6505 23.941 44.5318 24.5273C45.4327 25.1136 46.8429 26.169 47.6655 26.8726C48.5077 27.5761 49.7024 28.7096 50.3291 29.3741C50.9559 30.019 52.0331 31.2698 52.699 32.1297C53.3845 32.9896 54.4813 34.5336 55.108 35.5498C55.7543 36.5661 56.6357 38.11 57.0666 38.9699C57.517 39.8298 58.3005 41.7255 58.8488 43.1717C59.3972 44.6179 60.0632 46.6504 60.3374 47.6667C60.6115 48.683 61.0033 50.5396 61.2383 51.7708C61.4537 53.002 61.7083 55.0345 61.8259 56.2658C61.9238 57.497 62.0217 64.689 62.0217 72.2523C62.0217 83.0402 62.0805 85.9912 62.2567 86.089C62.3938 86.1476 63.471 86.0108 64.6658 85.7763C65.8409 85.5417 67.6624 85.0532 68.6808 84.6623C69.6992 84.291 70.9331 83.7633 71.4228 83.5288C71.9124 83.2747 73.0876 82.5516 74.0668 81.9067C75.0265 81.2813 76.5934 80.011 77.5139 79.112C78.4344 78.213 79.7466 76.7277 80.4126 75.8092C81.0785 74.8906 82.0577 73.3076 82.567 72.2913C83.0958 71.2751 83.7813 69.653 84.1142 68.6758C84.4276 67.6987 84.8389 66.0766 85.0347 65.0603C85.2894 63.6141 85.3481 62.4806 85.2698 59.979C85.211 57.6143 85.0739 56.2658 84.7606 54.8977C84.5255 53.8815 84.0359 52.2985 83.6638 51.3799C83.2916 50.4614 82.7041 49.1715 82.3515 48.5071C81.999 47.8426 81.1568 46.5136 80.4909 45.5756C79.825 44.6375 78.6303 43.2108 76.4171 41.0219L75.144 41.8428C74.439 42.2923 72.7154 43.2108 71.3249 43.8753C69.9343 44.5398 68.2695 45.2433 67.6624 45.4583C67.0356 45.6537 66.4676 45.7319 66.3893 45.6537C66.3109 45.556 66.2326 43.6603 66.2522 41.4519C66.2522 38.1491 66.3501 36.9374 66.7027 34.8658C66.9573 33.4782 67.3686 31.5825 67.6428 30.664C67.8974 29.7454 68.4262 28.1624 68.8179 27.1462C69.2096 26.1299 69.9539 24.4101 70.4827 23.3352C71.0115 22.2603 72.0299 20.5014 72.735 19.4265C73.4401 18.3516 74.4977 16.8663 75.1049 16.1042C75.712 15.342 76.9067 13.9935 77.7685 13.0945C78.6499 12.1955 80.2363 10.7493 81.3135 9.88937C82.3907 9.02946 83.3112 8.28681 83.37 8.22818C83.4287 8.16955 83.2916 8.18909 83.0762 8.26726C82.8607 8.34544 81.9402 8.85357 81.0197 9.40078C80.0992 9.948 78.5519 10.9838 77.5922 11.7264C76.613 12.4495 75.1832 13.6417 74.3802 14.3843C73.5772 15.1074 72.2258 16.5537 71.364 17.5699C70.5218 18.5862 69.4055 20.0324 68.8962 20.7946C68.387 21.5568 67.5644 22.8662 67.0552 23.7261C66.5656 24.586 65.8997 25.8563 65.5863 26.5599C65.2729 27.2634 64.6853 28.7096 64.3132 29.7845C63.9215 30.8594 63.471 32.3056 63.2948 33.0092C63.1185 33.7127 62.7855 35.2567 62.5897 36.4293C62.3743 37.6214 62.2176 39.224 62.2176 40.0057C62.2176 40.7679 62.1588 41.4128 62.0609 41.4128C61.9825 41.4128 61.7475 41.0024 61.5517 40.4747C61.3362 39.9666 60.7486 38.6767 60.2198 37.6019C59.6714 36.527 58.9468 35.1589 58.5942 34.5726C57.9675 33.5564 57.9283 33.4391 58.1046 32.4229C58.2025 31.8366 58.3984 30.8203 58.5551 30.1754C58.7118 29.5305 59.0447 28.2992 59.2797 27.4393C59.5148 26.5794 60.1023 24.8596 60.592 23.6284C61.062 22.3971 61.8454 20.6382 62.3155 19.7197C62.7855 18.8011 63.8823 17.0032 64.7245 15.7133C65.5667 14.4234 66.9181 12.6254 67.7211 11.7069C68.5241 10.7884 69.993 9.34215 70.9527 8.48224C71.932 7.62233 73.5184 6.3911 74.4781 5.72663C75.4378 5.0817 76.7892 4.22179 77.4943 3.83092C78.1994 3.4596 79.7271 2.73649 80.9218 2.24791C82.0969 1.77887 83.9967 1.15348 85.1327 0.879872C86.2686 0.606264 87.5417 0.313114 87.9726 0.215397C88.4035 0.0981368 88.8735 0.0199633 88.991 0.000419933H89.0106ZM37.6964 28.6119C38.6365 29.3741 40.2034 30.7812 41.1827 31.7389C42.1424 32.716 43.435 34.1231 44.0422 34.8658C44.6493 35.628 45.7461 37.1133 46.4512 38.1882C47.1759 39.263 48.2922 41.1978 48.919 42.4877C49.5653 43.7776 50.3879 45.6733 50.76 46.6895C51.1126 47.7058 51.7001 49.6406 52.0135 50.9891C52.3464 52.3376 52.7577 54.5069 52.9144 55.8358C53.0907 57.1452 53.2278 59.3927 53.2278 60.8194C53.2278 62.2265 53.169 63.6923 53.0907 64.044C52.9862 64.461 52.8165 64.6694 52.5815 64.6694C52.4052 64.6694 51.6022 64.4349 50.8188 64.1613C50.0549 63.8682 48.5468 63.2232 47.4892 62.6955C46.4512 62.1679 45.0802 61.4057 44.4535 61.0148C43.8463 60.624 42.632 59.764 41.7702 59.1191C40.9085 58.4742 39.4396 57.1843 38.519 56.2658C37.5985 55.3472 36.5213 54.1942 36.1296 53.6861C35.7379 53.1584 35.3462 52.7871 35.2482 52.8261C35.1699 52.8652 34.8957 53.8424 34.6215 55.015C34.1906 56.8716 34.1319 57.6143 34.1319 60.663C34.1319 63.3796 34.2102 64.5522 34.504 65.842C34.6998 66.7606 35.0916 68.1677 35.3462 68.969C35.6204 69.7702 36.1884 71.1187 36.5996 71.9591C37.0305 72.7799 37.6573 73.933 38.0294 74.4997C38.3819 75.047 39.087 76.0437 39.6158 76.6886C40.1251 77.3335 41.2218 78.5061 42.0444 79.2879C42.867 80.0696 44.3751 81.2813 45.3936 81.9653C46.412 82.6493 47.8613 83.4897 48.6252 83.8415C49.3694 84.1737 50.7404 84.7014 51.6609 84.9945C52.5815 85.3072 53.7174 85.6004 54.2071 85.6786C55.0688 85.7763 55.108 85.8154 56.0677 87.457C56.5965 88.3755 57.1057 89.1182 57.1841 89.0986C57.282 89.0986 57.3408 82.5321 57.3408 74.4802C57.3408 62.3829 57.282 59.4904 57.0274 57.5361C56.8707 56.2462 56.5573 54.3505 56.3223 53.3343C56.1069 52.318 55.6172 50.5591 55.2647 49.4256C54.8926 48.2921 53.972 46.1423 53.2474 44.6375C52.5031 43.1326 51.3868 41.1588 50.76 40.2402C50.1529 39.3217 49.2519 38.0904 48.7623 37.5041C48.2922 36.9178 47.1759 35.6866 46.3141 34.7876C45.4327 33.8886 44.1401 32.6574 43.435 32.0515C42.7299 31.4457 41.3589 30.4099 40.3992 29.765C39.42 29.12 38.049 28.2601 37.3243 27.8497C36.6192 27.4589 36.0121 27.1462 36.0121 27.1852C35.9925 27.2243 36.7563 27.8497 37.6964 28.6119Z" fill="url(#paint0_linear_419_3)"/>
<defs>
<linearGradient id="paint0_linear_419_3" x1="59.6839" y1="0" x2="59.6839" y2="119" gradientUnits="userSpaceOnUse">
<stop offset="0.0240385" stop-color="#018768"/>
<stop offset="1" stop-color="#A0C556"/>
</linearGradient>
</defs>
</svg>
